<svg xmlns="http://www.w3.org/2000/svg" viewBox="0 0 79 79">
  <g fill="#1C0802">
    <rect x="15.3125" y="10.1593" width="3.71215" height="3.71215" rx="1.85607"/>
    <rect x="26.4492" y="1.34265" width="3.71215" height="3.71215" rx="1.85607"/>
    <rect x="6.0791" y="20.8323" width="3.71215" height="3.71215" rx="1.85607" transform="rotate(90 6.0791 20.8323)"/>
    <rect x="38.5127" y="1.34265" width="3.71215" height="3.71215" rx="1.85607"/>
    <rect x="50.626" y="1.34265" width="3.71215" height="3.71215" rx="1.85607"/>
    <rect x="8.44531" y="42.1299" width="8.44553" height="8.44553" rx="4.22276" transform="rotate(90 8.44531 42.1299)"/>
    <rect x="7.93555" y="30.5763" width="7.4243" height="7.4243" rx="3.71215" transform="rotate(90 7.93555 30.5763)"/>
    <rect x="24.5898" y="8.29968" width="7.43207" height="7.43207" rx="3.71603"/>
    <rect x="36.6572" y="8.30444" width="7.4243" height="7.4243" rx="3.71215"/>
    <rect x="49.6973" y="9.23181" width="5.56822" height="5.56822" rx="2.78411"/>
    <rect x="62.415" y="10.1593" width="3.71215" height="3.71215" rx="1.85607"/>
    <rect x="12.0654" y="17.5831" width="10.2084" height="10.2084" rx="5.1042"/>
    <rect x="22.9004" y="17.2827" width="10.8103" height="10.8103" rx="5.40514"/>
    <rect x="34.8008" y="17.1195" width="11.1365" height="11.1365" rx="5.56823"/>
    <rect x="48.5967" y="18.803" width="7.76989" height="7.76989" rx="3.88494"/>
    <rect x="61.4863" y="19.9033" width="5.56822" height="5.56822" rx="2.78411"/>
    <rect x="73.3145" y="20.8323" width="3.71215" height="3.71215" rx="1.85607"/>
    <rect x="10.209" y="27.3289" width="13.9206" height="13.9206" rx="6.96028"/>
    <rect x="21.3457" y="27.3289" width="13.9206" height="13.9206" rx="6.96028"/>
    <rect x="34.3369" y="28.2562" width="12.0645" height="12.0645" rx="6.03224"/>
    <rect x="46.9141" y="28.72" width="11.1364" height="11.1364" rx="5.56822"/>
    <rect x="60.0498" y="30.0674" width="8.44553" height="8.44553" rx="4.22276"/>
    <rect x="71.458" y="30.5763" width="7.4243" height="7.4243" rx="3.71215"/>
    <rect x="10.209" y="39.3929" width="13.9206" height="13.9206" rx="6.96028"/>
    <rect x="21.3457" y="39.3929" width="13.9206" height="13.9206" rx="6.96028"/>
    <rect x="33.4102" y="39.3929" width="13.9206" height="13.9206" rx="6.96028"/>
    <rect x="46.4023" y="40.2719" width="12.1616" height="12.1616" rx="6.08078"/>
    <rect x="59.542" y="41.6241" width="9.45899" height="9.45899" rx="4.7295"/>
    <rect x="59.542" y="54.6173" width="9.45899" height="9.45899" rx="4.7295"/>
    <rect x="71.458" y="42.6404" width="7.4243" height="7.4243" rx="3.71215"/>
    <rect x="11.0879" y="53.2666" width="12.1616" height="12.1616" rx="6.08078"/>
    <rect x="21.3457" y="52.3844" width="13.9206" height="13.9206" rx="6.96028"/>
    <rect x="33.4102" y="52.3844" width="13.9206" height="13.9206" rx="6.96028"/>
    <rect x="46.4023" y="53.2666" width="12.1616" height="12.1616" rx="6.08078"/>
    <rect x="22.2246" y="65.3792" width="12.1616" height="12.1616" rx="6.08078"/>
    <rect x="34.9658" y="66.0529" width="10.8103" height="10.8103" rx="5.40514"/>
    <rect x="47.2471" y="66.2241" width="10.4725" height="10.4725" rx="5.23623"/>
  </g>
</svg>
